<svg width="512" height="512" viewBox="0 0 512 512" fill="none" xmlns="http://www.w3.org/2000/svg">
<circle cx="256" cy="256" r="248.5" stroke="white" stroke-width="15"/>
<circle cx="256" cy="256" r="165.5" stroke="white" stroke-width="15"/>
<path d="M288.167 198.867C290.255 203.888 294.977 207.318 300.396 207.753L383.889 214.445L320.276 268.938C316.147 272.475 314.343 278.025 315.604 283.313L335.039 364.788L263.559 321.128L263.12 320.871C258.555 318.297 252.937 318.382 248.441 321.128L176.96 364.788L196.396 283.314C197.657 278.025 195.853 272.475 191.724 268.938L128.11 214.445L211.604 207.753C217.023 207.318 221.745 203.888 223.833 198.867L256 121.53L288.167 198.867Z" fill="white" stroke="white" stroke-width="15"/>
</svg>
