<svg width="512" height="512" viewBox="0 0 512 512" fill="none" xmlns="http://www.w3.org/2000/svg">
<circle cx="256" cy="256" r="256" fill="#692DD2"/>
<circle cx="256" cy="256" r="173" fill="#8B4FF2"/>
<path d="M249.537 117.54C251.928 111.79 260.072 111.79 262.463 117.539L295.092 195.987C296.1 198.411 298.379 200.067 300.995 200.277L385.687 207.066C391.893 207.564 394.41 215.31 389.681 219.36L325.155 274.633C323.162 276.341 322.291 279.02 322.9 281.574L342.614 364.218C344.059 370.274 337.47 375.061 332.156 371.816L259.649 327.529C257.409 326.16 254.591 326.16 252.351 327.529L179.844 371.816C174.53 375.061 167.941 370.274 169.386 364.218L189.1 281.574C189.709 279.02 188.838 276.341 186.845 274.633L122.319 219.36C117.59 215.31 120.107 207.564 126.313 207.066L211.005 200.277C213.621 200.067 215.9 198.411 216.908 195.987L249.537 117.54Z" fill="#FFDF89"/>
<path d="M249.537 177.54C251.928 171.79 260.072 171.79 262.463 177.54L279.221 217.831C280.229 220.255 282.509 221.91 285.125 222.12L328.623 225.607C334.83 226.105 337.346 233.851 332.618 237.901L299.477 266.29C297.483 267.998 296.613 270.677 297.222 273.23L307.347 315.677C308.792 321.733 302.203 326.52 296.889 323.275L259.649 300.529C257.409 299.16 254.591 299.16 252.351 300.529L215.111 323.275C209.797 326.52 203.208 321.733 204.653 315.677L214.778 273.23C215.387 270.677 214.517 267.998 212.523 266.29L179.382 237.901C174.654 233.851 177.17 226.105 183.377 225.607L226.875 222.12C229.491 221.91 231.771 220.255 232.779 217.831L249.537 177.54Z" fill="white"/>
</svg>
